<svg width="180" height="50" viewBox="0 0 180 50" fill="none" xmlns="http://www.w3.org/2000/svg">
<rect width="179.383" height="50" rx="25" fill="white"/>
<path d="M47.1334 26.0816C47.0947 21.7819 50.655 19.6901 50.8177 19.5927C48.8015 16.6538 45.6763 16.2522 44.5781 16.2202C41.9533 15.9441 39.4072 17.7904 38.0701 17.7904C36.7064 17.7904 34.6474 16.2469 32.4283 16.2923C29.5726 16.3363 26.9011 17.9892 25.436 20.5559C22.4122 25.7894 24.6673 33.4802 27.5643 37.7105C29.0135 39.7836 30.7069 42.0956 32.9233 42.0142C35.0917 41.9261 35.9017 40.6334 38.5185 40.6334C41.1113 40.6334 41.8719 42.0142 44.1324 41.9621C46.4596 41.9261 47.9247 39.881 49.3232 37.7906C50.9979 35.4173 51.6704 33.0773 51.6971 32.9573C51.6437 32.9386 47.1788 31.2337 47.1334 26.0816ZM42.8633 13.4374C44.0296 11.9793 44.8276 9.99551 44.6061 7.98242C42.918 8.05713 40.807 9.14972 39.5914 10.5758C38.5158 11.8325 37.5551 13.8923 37.8033 15.8293C39.6995 15.9707 41.6464 14.8728 42.8633 13.4374Z" fill="#171717"/>
<path d="M65.453 15.9439C64.7738 15.9439 64.1863 15.9107 63.6973 15.8546V8.48776C64.3812 8.38213 65.0724 8.33007 65.7645 8.33205C68.5647 8.33205 69.8543 9.70946 69.8543 11.9548C69.8543 14.5447 68.3311 15.9439 65.453 15.9439ZM65.863 9.27666C65.4851 9.27666 65.1632 9.29956 64.8964 9.35452V14.9546C65.0407 14.9775 65.3178 14.9878 65.7072 14.9878C67.542 14.9878 68.5865 13.9436 68.5865 11.988C68.5865 10.2442 67.6416 9.27666 65.863 9.27666ZM73.8731 16C72.2949 16 71.2722 14.8218 71.2722 13.2223C71.2722 11.5552 72.3167 10.3667 73.9625 10.3667C75.5178 10.3667 76.5634 11.4888 76.5634 13.1341C76.5634 14.8218 75.4857 16 73.8731 16ZM73.919 11.2437C73.052 11.2437 72.4965 12.0544 72.4965 13.1879C72.4965 14.2997 73.0634 15.1103 73.9075 15.1103C74.7516 15.1103 75.3185 14.2436 75.3185 13.165C75.3185 12.0658 74.763 11.2437 73.919 11.2437ZM85.5631 10.4777L83.8738 15.8775H82.7732L82.0734 13.5326C81.8994 12.959 81.7545 12.377 81.6393 11.7888H81.6164C81.5282 12.3773 81.361 12.9669 81.1835 13.5326L80.4391 15.8775H79.327L77.7373 10.4777H78.9708L79.5824 13.0448C79.7267 13.6562 79.8481 14.2333 79.9489 14.7783H79.9718C80.06 14.3237 80.2043 13.7558 80.4162 13.0562L81.1835 10.4789H82.1616L82.8957 13.0013C83.0732 13.6127 83.2175 14.2127 83.3298 14.7794H83.3618C83.4397 14.2241 83.5623 13.6345 83.7283 13.0013L84.3846 10.4789L85.5631 10.4777ZM91.782 15.8775H90.5817V12.7769C90.5817 11.822 90.2152 11.3434 89.4926 11.3434C88.7813 11.3434 88.2923 11.9548 88.2923 12.6658V15.8775H87.092V12.0212C87.092 11.5437 87.0806 11.0319 87.0474 10.4766H88.1033L88.1595 11.3101H88.1927C88.5156 10.7331 89.1707 10.3667 89.9049 10.3667C91.0387 10.3667 91.7831 11.2334 91.7831 12.6441L91.782 15.8775ZM95.0919 15.8775H93.8905V8H95.0919V15.8775ZM99.468 16C97.891 16 96.8671 14.8218 96.8671 13.2223C96.8671 11.5552 97.9116 10.3667 99.5562 10.3667C101.113 10.3667 102.157 11.4888 102.157 13.1341C102.158 14.8218 101.079 16 99.468 16ZM99.5127 11.2437C98.6457 11.2437 98.0902 12.0544 98.0902 13.1879C98.0902 14.2997 98.6583 15.1103 99.5001 15.1103C100.345 15.1103 100.911 14.2436 100.911 13.165C100.912 12.0658 100.358 11.2437 99.5127 11.2437ZM106.889 15.8775L106.802 15.2558H106.77C106.404 15.7561 105.869 16 105.191 16C104.223 16 103.536 15.3222 103.536 14.4108C103.536 13.078 104.692 12.3887 106.692 12.3887V12.2891C106.692 11.5781 106.316 11.222 105.571 11.222C105.039 11.222 104.571 11.3559 104.16 11.6227L103.916 10.8338C104.416 10.5224 105.039 10.3667 105.771 10.3667C107.182 10.3667 107.894 11.1109 107.894 12.6005V14.5894C107.894 15.1344 107.918 15.5569 107.972 15.8786L106.889 15.8775ZM106.725 13.1879C105.391 13.1879 104.723 13.5108 104.723 14.2768C104.723 14.8436 105.067 15.1207 105.546 15.1207C106.156 15.1207 106.725 14.6546 106.725 14.0215V13.1879ZM113.722 15.8775L113.666 15.0107H113.633C113.288 15.6657 112.709 16 111.899 16C110.597 16 109.632 14.855 109.632 13.244C109.632 11.5552 110.632 10.3655 111.997 10.3655C112.72 10.3655 113.232 10.6094 113.521 11.0995H113.545V8H114.746V14.4222C114.746 14.9443 114.759 15.4332 114.791 15.8775H113.722ZM113.545 12.7002C113.545 11.9445 113.044 11.2998 112.28 11.2998C111.39 11.2998 110.846 12.0887 110.846 13.1994C110.846 14.2882 111.411 15.0336 112.256 15.0336C113.011 15.0336 113.545 14.3776 113.545 13.6001V12.7002ZM122.363 16C120.786 16 119.764 14.8218 119.764 13.2223C119.764 11.5552 120.808 10.3667 122.453 10.3667C124.009 10.3667 125.054 11.4888 125.054 13.1341C125.055 14.8218 123.977 16 122.363 16ZM122.408 11.2437C121.542 11.2437 120.987 12.0544 120.987 13.1879C120.987 14.2997 121.554 15.1103 122.397 15.1103C123.242 15.1103 123.808 14.2436 123.808 13.165C123.81 12.0658 123.254 11.2437 122.408 11.2437ZM131.509 15.8775H130.307V12.7769C130.307 11.822 129.941 11.3434 129.218 11.3434C128.507 11.3434 128.019 11.9548 128.019 12.6658V15.8775H126.817V12.0212C126.817 11.5437 126.806 11.0319 126.773 10.4766H127.829L127.885 11.3101H127.918C128.24 10.7331 128.896 10.3655 129.629 10.3655C130.763 10.3655 131.509 11.2323 131.509 12.6429V15.8775ZM139.584 11.3777H138.263V13.9997C138.263 14.6672 138.495 15.0004 138.962 15.0004C139.174 15.0004 139.351 14.9775 139.495 14.9443L139.528 15.8557C139.295 15.945 138.984 15.9897 138.597 15.9897C137.651 15.9897 137.085 15.4676 137.085 14.1005V11.3777H136.297V10.4777H137.085V9.48848L138.263 9.13239V10.4766H139.584V11.3777ZM145.938 15.8775H144.739V12.7998C144.739 11.8334 144.374 11.3445 143.65 11.3445C143.028 11.3445 142.448 11.767 142.448 12.6223V15.8775H141.249V8H142.448V11.2437H142.472C142.85 10.6552 143.398 10.3655 144.096 10.3655C145.239 10.3655 145.938 11.254 145.938 12.6658V15.8775ZM152.448 13.4662H148.846C148.869 14.4886 149.546 15.0657 150.548 15.0657C151.08 15.0657 151.571 14.9764 152.003 14.8104L152.19 15.6439C151.679 15.866 151.078 15.9771 150.378 15.9771C148.689 15.9771 147.689 14.91 147.689 13.2555C147.689 11.5998 148.713 10.3552 150.243 10.3552C151.623 10.3552 152.489 11.3777 152.489 12.9223C152.497 13.1046 152.483 13.2871 152.448 13.4662ZM151.347 12.6108C151.347 11.7773 150.927 11.1888 150.16 11.1888C149.47 11.1888 148.925 11.7888 148.847 12.6108H151.347Z" fill="#171717"/>
<path d="M76.6174 37.5266H74.0058L72.5752 33.0324H67.6026L66.2399 37.5266H63.6973L68.625 22.2265H71.6679L76.6174 37.5266ZM72.144 31.1469L70.8502 27.1518C70.7134 26.7436 70.4558 25.7825 70.0786 24.2695H70.0326C69.8808 24.9202 69.6381 25.8814 69.3058 27.1518L68.0339 31.1469H72.144ZM89.2651 31.8747C89.2651 33.751 88.7556 35.2341 87.7356 36.3228C86.8225 37.292 85.6874 37.776 84.3339 37.776C82.8723 37.776 81.8212 37.2552 81.1829 36.2113V42H78.7311V30.1203C78.7311 28.9418 78.7001 27.7335 78.6403 26.4941H80.7965L80.9334 28.2428H80.9794C81.797 26.9253 83.0379 26.2665 84.703 26.2665C86.0048 26.2665 87.0916 26.7804 87.961 27.8094C88.8292 28.8407 89.2651 30.195 89.2651 31.8747ZM86.7673 31.9644C86.7673 30.8905 86.5258 30.0053 86.0405 29.3074C85.5103 28.582 84.7985 28.2187 83.9061 28.2187C83.3012 28.2187 82.7515 28.421 82.2605 28.82C81.7683 29.2223 81.4463 29.7478 81.2956 30.3985C81.2284 30.6418 81.1901 30.8923 81.1818 31.1446V32.9853C81.1818 33.7866 81.4279 34.4638 81.9201 35.0179C82.4123 35.5698 83.0517 35.8469 83.8383 35.8469C84.7617 35.8469 85.4804 35.4893 85.9945 34.7799C86.5097 34.0683 86.7673 33.1301 86.7673 31.9644ZM101.958 31.8747C101.958 33.751 101.448 35.2341 100.428 36.3228C99.5138 37.292 98.3799 37.776 97.0252 37.776C95.5636 37.776 94.5125 37.2552 93.8742 36.2113V42H91.4225V30.1203C91.4225 28.9418 91.3914 27.7335 91.3316 26.4941H93.4878L93.6247 28.2428H93.6707C94.4872 26.9253 95.728 26.2665 97.3944 26.2665C98.695 26.2665 99.7818 26.7804 100.653 27.8094C101.521 28.8407 101.958 30.195 101.958 31.8747ZM99.4586 31.9644C99.4586 30.8905 99.216 30.0053 98.7307 29.3074C98.2005 28.582 97.491 28.2187 96.5986 28.2187C95.9937 28.2187 95.444 28.421 94.9506 28.82C94.4584 29.2223 94.1376 29.7478 93.9869 30.3985C93.9122 30.702 93.8719 30.9492 93.8719 31.1446V32.9853C93.8719 33.7866 94.1192 34.4638 94.6091 35.0179C95.1013 35.5686 95.7407 35.8469 96.5296 35.8469C97.4542 35.8469 98.1729 35.4893 98.6858 34.7799C99.201 34.0683 99.4586 33.1301 99.4586 31.9644ZM116.148 33.2348C116.148 34.5374 115.693 35.5962 114.788 36.4137C113.792 37.3058 112.402 37.753 110.619 37.753C108.973 37.753 107.652 37.4357 106.656 36.8L107.223 34.757C108.299 35.3939 109.48 35.7112 110.765 35.7112C111.69 35.7112 112.409 35.502 112.922 35.0869C113.436 34.6707 113.696 34.1143 113.696 33.4199C113.696 32.7979 113.48 32.2771 113.058 31.8528C112.634 31.4298 111.933 31.0354 110.947 30.6733C108.268 29.6742 106.927 28.2129 106.927 26.2906C106.927 25.0352 107.4 24.0074 108.346 23.2037C109.291 22.4012 110.545 22 112.104 22C113.497 22 114.657 22.2426 115.578 22.7266L114.963 24.7248C114.096 24.2557 113.117 24.0212 112.022 24.0212C111.158 24.0212 110.479 24.2338 109.994 24.6569C109.585 25.0352 109.378 25.4962 109.378 26.0435C109.378 26.647 109.614 27.1483 110.083 27.5415C110.491 27.9037 111.233 28.298 112.307 28.7211C113.625 29.2522 114.594 29.8708 115.214 30.5813C115.838 31.2918 116.148 32.1782 116.148 33.2348ZM124.275 28.3336H121.573V33.69C121.573 35.0524 122.049 35.7319 123.004 35.7319C123.442 35.7319 123.805 35.6951 124.093 35.6181L124.16 37.4794C123.677 37.6599 123.042 37.7507 122.254 37.7507C121.285 37.7507 120.529 37.4553 119.983 36.8643C119.439 36.2734 119.165 35.2835 119.165 33.8901V28.329H117.555V26.4895H119.165V24.4695L121.573 23.7429V26.4895H124.275V28.3336ZM136.445 31.9195C136.445 33.6153 135.959 35.0076 134.991 36.0963C133.978 37.2173 132.63 37.776 130.95 37.776C129.329 37.776 128.039 37.2391 127.078 36.1665C126.117 35.0915 125.636 33.7372 125.636 32.1035C125.636 30.3939 126.133 28.9936 127.123 27.9048C128.115 26.8149 129.452 26.2699 131.132 26.2699C132.751 26.2699 134.052 26.808 135.036 27.8818C135.977 28.9234 136.445 30.2686 136.445 31.9195ZM133.903 31.9759C133.903 30.9653 133.685 30.0984 133.247 29.373C132.733 28.4969 131.997 28.0589 131.043 28.0589C130.061 28.0589 129.308 28.4969 128.795 29.373C128.356 30.0984 128.137 30.9802 128.137 32.0218C128.137 33.0336 128.356 33.9027 128.795 34.6259C129.325 35.502 130.065 35.94 131.022 35.94C131.96 35.94 132.695 35.4928 133.226 34.604C133.677 33.8613 133.903 32.9887 133.903 31.9759ZM144.418 28.6498C144.163 28.6038 143.904 28.5811 143.645 28.582C142.782 28.582 142.115 28.9062 141.646 29.5592C141.239 30.1341 141.034 30.8607 141.034 31.7379V37.5266H138.583V29.9685C138.585 28.8104 138.561 27.6523 138.511 26.4953H140.647L140.736 28.6061H140.804C141.064 27.8807 141.471 27.2955 142.03 26.8574C142.542 26.4747 143.163 26.2674 143.802 26.2665C144.029 26.2665 144.234 26.2826 144.415 26.3113L144.418 28.6498ZM155.383 31.4884C155.389 31.861 155.359 32.2333 155.293 32.6001H147.938C147.965 33.69 148.322 34.5247 149.005 35.0996C149.625 35.6123 150.426 35.8699 151.411 35.8699C152.5 35.8699 153.493 35.6974 154.387 35.349L154.771 37.0494C153.727 37.5047 152.494 37.7312 151.071 37.7312C149.36 37.7312 148.017 37.2276 147.04 36.2228C146.064 35.2168 145.576 33.8648 145.576 32.1713C145.576 30.5089 146.03 29.1235 146.94 28.0186C147.892 26.839 149.179 26.2493 150.798 26.2493C152.388 26.2493 153.592 26.839 154.41 28.0186C155.057 28.9533 155.383 30.1122 155.383 31.4884ZM153.045 30.8526C153.062 30.1249 152.901 29.4983 152.569 28.9683C152.144 28.2854 151.491 27.945 150.616 27.945C149.815 27.945 149.161 28.2773 148.665 28.9441C148.256 29.4741 148.014 30.1111 147.939 30.8503L153.045 30.8526Z" fill="#171717"/>
</svg>
